<svg width="187" height="187" viewBox="0 0 187 187" fill="none" xmlns="http://www.w3.org/2000/svg">
<path d="M49.012 181.762C49.012 184.551 46.751 186.811 43.963 186.811H5.401C2.613 186.811 0.35199 184.551 0.35199 181.762V143.2C0.35199 140.412 2.613 138.151 5.401 138.151H43.963C46.751 138.151 49.012 140.412 49.012 143.2V181.762Z" fill="url(#paint0_linear_1_20)"/>
<path d="M186.458 43.611C186.458 46.3995 184.197 48.66 181.409 48.66H142.846C140.058 48.66 137.798 46.3995 137.798 43.611V5.04895C137.798 2.26049 140.058 0 142.846 0H181.409C184.197 0 186.458 2.26049 186.458 5.04895V43.611Z" fill="url(#paint1_linear_1_20)"/>
<path d="M143.199 186.456C140.411 186.456 138.15 184.195 138.15 181.407V144.979C138.15 142.19 135.89 139.93 133.101 139.93H96.133C93.345 139.93 91.084 137.669 91.084 134.881V99.0559C91.084 96.2674 88.824 94.0069 86.035 94.0069H49.696C46.908 94.0069 44.647 91.7464 44.647 88.958V54.059C44.647 51.2705 42.387 49.01 39.598 49.01H5.04901C2.26001 49.01 0 46.7495 0 43.9611V5.39902C0 2.61056 2.26001 0.350066 5.04901 0.350066L43.611 0.350067C46.399 0.350068 48.66 2.61056 48.66 5.39902V40.298C48.66 43.0865 50.92 45.3469 53.709 45.3469H88.258C91.047 45.3469 93.307 47.6074 93.307 50.3959V86.221C93.307 89.0095 95.568 91.27 98.356 91.27H134.695C137.484 91.27 139.744 93.5304 139.744 96.3189V132.747C139.744 135.535 142.005 137.796 144.793 137.796H181.761C184.55 137.796 186.81 140.056 186.81 142.845V181.407C186.81 184.195 184.55 186.456 181.761 186.456H143.199Z" fill="url(#paint2_linear_1_20)"/>
<defs>
<linearGradient id="paint0_linear_1_20" x1="93.405" y1="-1.19682e-05" x2="93.405" y2="186.811" gradientUnits="userSpaceOnUse">
<stop offset="0.471775" stop-color="#0C0C0C"/>
<stop offset="1" stop-color="#6F60DF"/>
</linearGradient>
<linearGradient id="paint1_linear_1_20" x1="93.4049" y1="0" x2="93.4049" y2="186.811" gradientUnits="userSpaceOnUse">
<stop offset="0.471775" stop-color="#0C0C0C"/>
<stop offset="1" stop-color="#6F60DF"/>
</linearGradient>
<linearGradient id="paint2_linear_1_20" x1="93.405" y1="2.51986e-08" x2="93.405" y2="186.811" gradientUnits="userSpaceOnUse">
<stop offset="0.471775" stop-color="#0C0C0C"/>
<stop offset="1" stop-color="#6F60DF"/>
</linearGradient>
</defs>
</svg>
