<svg width="579" height="187" viewBox="0 0 579 187" fill="none" xmlns="http://www.w3.org/2000/svg">
<path d="M278.807 186.403H221.286V0.00488281H281.356C299.437 0.00488281 314.91 3.73649 327.773 11.1997C340.637 18.6022 350.497 29.2509 357.353 43.1458C364.21 56.9801 367.638 73.5447 367.638 92.8399C367.638 112.256 364.179 128.973 357.262 142.989C350.345 156.945 340.273 167.684 327.045 175.208C313.818 182.671 297.738 186.403 278.807 186.403ZM243.858 166.38H277.351C292.763 166.38 305.535 163.407 315.668 157.46C325.801 151.514 333.356 143.05 338.331 132.067C343.306 121.085 345.794 108.009 345.794 92.8399C345.794 77.7921 343.337 64.8377 338.422 53.9766C333.507 43.0548 326.165 34.6815 316.396 28.8565C306.628 22.9709 294.462 20.0281 279.9 20.0281H243.858V166.38Z" fill="#121111"/>
<path d="M191.407 0.00488281V186.403H168.836V0.00488281H191.407Z" fill="#121111"/>
<path d="M57.5213 186.403H0V0.00488281H60.0697C78.1513 0.00488281 93.6238 3.73649 106.487 11.1997C119.351 18.6022 129.211 29.2509 136.067 43.1458C142.923 56.9801 146.352 73.5447 146.352 92.8399C146.352 112.256 142.893 128.973 135.976 142.989C129.059 156.945 118.987 167.684 105.759 175.208C92.5316 182.671 76.4523 186.403 57.5213 186.403ZM22.5716 166.38H56.065C71.4769 166.38 84.2493 163.407 94.3822 157.46C104.515 151.514 112.069 143.05 117.045 132.067C122.02 121.085 124.508 108.009 124.508 92.8399C124.508 77.7921 122.051 64.8377 117.136 53.9766C112.221 43.0548 104.879 34.6815 95.1103 28.8565C85.3414 22.9709 73.1758 20.0281 58.6135 20.0281H22.5716V166.38Z" fill="#121111"/>
<path d="M440.202 181.762C440.202 184.551 437.941 186.811 435.153 186.811H396.591C393.803 186.811 391.542 184.551 391.542 181.762V143.2C391.542 140.412 393.803 138.151 396.591 138.151H435.153C437.941 138.151 440.202 140.412 440.202 143.2V181.762Z" fill="url(#paint0_linear_1_2)"/>
<path d="M577.648 43.611C577.648 46.3995 575.387 48.66 572.599 48.66H534.036C531.248 48.66 528.988 46.3995 528.988 43.611V5.04895C528.988 2.26049 531.248 0 534.036 0H572.599C575.387 0 577.648 2.26049 577.648 5.04895V43.611Z" fill="url(#paint1_linear_1_2)"/>
<path d="M534.389 186.456C531.601 186.456 529.34 184.195 529.34 181.407V144.979C529.34 142.19 527.08 139.93 524.291 139.93H487.323C484.535 139.93 482.274 137.669 482.274 134.881V99.0559C482.274 96.2674 480.014 94.0069 477.225 94.0069H440.886C438.098 94.0069 435.837 91.7464 435.837 88.958V54.059C435.837 51.2705 433.577 49.01 430.788 49.01H396.239C393.45 49.01 391.19 46.7495 391.19 43.9611V5.39902C391.19 2.61056 393.45 0.350066 396.239 0.350066L434.801 0.350067C437.589 0.350068 439.85 2.61056 439.85 5.39902V40.298C439.85 43.0865 442.11 45.3469 444.899 45.3469H479.448C482.237 45.3469 484.497 47.6074 484.497 50.3959V86.221C484.497 89.0095 486.758 91.27 489.546 91.27H525.885C528.674 91.27 530.934 93.5304 530.934 96.3189V132.747C530.934 135.535 533.195 137.796 535.983 137.796H572.951C575.74 137.796 578 140.056 578 142.845V181.407C578 184.195 575.74 186.456 572.951 186.456H534.389Z" fill="url(#paint2_linear_1_2)"/>
<defs>
<linearGradient id="paint0_linear_1_2" x1="484.595" y1="-1.19682e-05" x2="484.595" y2="186.811" gradientUnits="userSpaceOnUse">
<stop offset="0.471775" stop-color="#0C0C0C"/>
<stop offset="1" stop-color="#6F60DF"/>
</linearGradient>
<linearGradient id="paint1_linear_1_2" x1="484.595" y1="0" x2="484.595" y2="186.811" gradientUnits="userSpaceOnUse">
<stop offset="0.471775" stop-color="#0C0C0C"/>
<stop offset="1" stop-color="#6F60DF"/>
</linearGradient>
<linearGradient id="paint2_linear_1_2" x1="484.595" y1="2.51986e-08" x2="484.595" y2="186.811" gradientUnits="userSpaceOnUse">
<stop offset="0.471775" stop-color="#0C0C0C"/>
<stop offset="1" stop-color="#6F60DF"/>
</linearGradient>
</defs>
</svg>
